<?xml version="1.0" standalone="no"?>
<!DOCTYPE svg PUBLIC "-//W3C//DTD SVG 20010904//EN"
 "http://www.w3.org/TR/2001/REC-SVG-20010904/DTD/svg10.dtd">
<svg version="1.0" xmlns="http://www.w3.org/2000/svg"
 width="6234.000000pt" height="2856.000000pt" viewBox="0 0 6234.000000 2856.000000"
 preserveAspectRatio="xMidYMid meet">
<metadata>
Created by potrace 1.16, written by Peter Selinger 2001-2019
</metadata>
<g transform="translate(0.000000,2856.000000) scale(0.100000,-0.100000)"
fill="#000000" stroke="none">
<path d="M34530 15650 l0 -8150 4725 0 4725 0 0 1105 0 1105 -3370 0 -3370 0
0 2545 0 2545 2600 0 2600 0 0 1090 0 1090 -2600 0 -2600 0 0 2325 0 2325
3315 0 3315 0 0 1085 0 1085 -4670 0 -4670 0 0 -8150z"/>
<path d="M45770 15650 l0 -8150 1355 0 1355 0 0 2674 0 2674 953 1355 c523
746 955 1357 958 1357 3 0 822 -1812 1820 -4026 997 -2215 1818 -4028 1824
-4030 5 -2 667 -3 1470 -2 l1460 3 -2458 5154 -2458 5155 29 40 c93 131 4142
5896 4156 5919 l18 27 -1433 0 -1434 0 -2450 -3871 -2450 -3872 -3 3872 -2
3871 -1355 0 -1355 0 0 -8150z"/>
</g>
</svg>
